<svg width="51" height="40" viewBox="0 0 51 40" fill="none" xmlns="http://www.w3.org/2000/svg">
<path fill-rule="evenodd" clip-rule="evenodd" d="M46.5843 6.58616L50.9397 27.7312C51.0011 27.9491 51.0159 28.1815 50.9827 28.4078C50.9496 28.6341 50.8695 28.8472 50.7495 29.0284C50.6296 29.2096 50.4735 29.3532 50.295 29.4465C50.1166 29.5398 49.9214 29.58 49.7266 29.5635H46.2631C45.6664 35.3747 41.4478 39.8784 36.3323 39.8784C31.2169 39.8784 26.9982 35.3747 26.4015 29.5635H24.7029C24.1056 35.442 19.8405 40 14.6677 40C9.48619 40 5.2154 35.4266 4.62951 29.5337H1.25351C1.06288 29.5445 0.872829 29.5014 0.699231 29.4082C0.525633 29.315 0.373526 29.1743 0.255615 28.9979C0.137704 28.8214 0.0574098 28.6144 0.0214392 28.3941C-0.0145314 28.1737 -0.00513453 27.9464 0.0488449 27.7312L4.4126 6.58616C4.71587 4.25872 6.6029 0 11.6574 0C11.9926 0 12.314 0.156518 12.551 0.435122C12.7879 0.713727 12.9211 1.0916 12.9211 1.4856C12.9211 1.87961 12.7879 2.25748 12.551 2.53608C12.314 2.81468 11.9926 2.9712 11.6574 2.9712C7.58854 2.9712 6.95672 6.6654 6.90617 7.07146L2.88781 26.6022H4.6459C5.29094 20.7847 9.53197 16.2918 14.6677 16.2918C19.8006 16.2918 24.0398 20.7798 24.6884 26.5926L26.4151 26.6017C27.0597 20.8518 31.2541 16.4134 36.3323 16.4134C41.4205 16.4134 45.6213 20.8691 46.2532 26.6353V26.5824H48.1007L44.0908 7.07146C44.0318 6.6654 43.4252 2.9712 39.3395 2.9712C39.0043 2.9712 38.6829 2.81468 38.446 2.53608C38.209 2.25748 38.0759 1.87961 38.0759 1.4856C38.0759 1.0916 38.209 0.713727 38.446 0.435122C38.6829 0.156518 39.0043 0 39.3395 0C44.394 0 46.2811 4.25872 46.5843 6.58616ZM22.1913 29.5635C22.254 29.1018 22.2866 28.6283 22.2866 28.1459C22.2866 27.6164 22.2473 27.0977 22.172 26.5935C21.5455 22.3982 18.424 19.2097 14.6677 19.2097C10.9091 19.2097 7.78617 22.402 7.16223 26.601C7.08766 27.1028 7.04878 27.619 7.04878 28.1459C7.04878 28.6205 7.08032 29.0864 7.14108 29.541C7.71216 33.8136 10.8645 37.0821 14.6677 37.0821C18.4642 37.0821 21.6121 33.8251 22.1913 29.5635ZM43.7509 29.5635C43.8145 29.102 43.8476 28.6285 43.8476 28.1459C43.8476 23.2777 40.4829 19.3313 36.3323 19.3313C32.1818 19.3313 28.8171 23.2777 28.8171 28.1459C28.8171 28.6285 28.8501 29.102 28.9137 29.5635C29.4918 33.7577 32.5932 36.9605 36.3323 36.9605C40.0714 36.9605 43.1728 33.7577 43.7509 29.5635Z" fill="white"/>
</svg>
